<svg t="1606120827577" class="icon" viewBox="0 0 1024 1024" version="1.1" xmlns="http://www.w3.org/2000/svg" p-id="2438" width="32" height="32"><path d="M824.978286 74.020571H199.021714a125.220571 125.220571 0 0 0-125.074285 125.074286v625.883429a125.220571 125.220571 0 0 0 125.074285 125.074285h625.883429a125.220571 125.220571 0 0 0 125.074286-125.074285V199.094857a125.074286 125.074286 0 0 0-125.001143-125.074286z m-498.102857 64.365715h371.419428V384.731429H326.875429V138.386286z m560.859428 686.518857a62.902857 62.902857 0 0 1-62.829714 62.829714H199.021714a62.171429 62.171429 0 0 1-44.397714-18.432 61.366857 61.366857 0 0 1-18.432-44.397714V199.094857a62.902857 62.902857 0 0 1 62.829714-62.829714h62.829715v250.148571c0 16.676571 6.582857 32.621714 18.432 44.397715a61.805714 61.805714 0 0 0 43.885714 18.432h375.734857a62.902857 62.902857 0 0 0 62.829714-62.829715V136.777143h62.244572a62.902857 62.902857 0 0 1 62.829714 62.829714v625.298286z" fill="#2c2c2c" p-id="2439"></path><path d="M572.708571 193.609143a32.548571 32.548571 0 0 0-32.475428 32.475428v62.610286c0 17.92 14.555429 32.475429 32.475428 32.475429a30.134857 30.134857 0 0 0 22.747429-9.728 33.645714 33.645714 0 0 0 9.728-22.747429v-62.610286a32.621714 32.621714 0 0 0-32.475429-32.475428z" fill="#2c2c2c" p-id="2440"></path></svg>