<svg width="24" height="24" xmlns="http://www.w3.org/2000/svg"><path d="M22.956 8.77a11.34 11.34 0 0 0-.925-2.233 3.66 3.66 0 0 1-4.566-4.568 11.39 11.39 0 0 0-2.236-.925A3.662 3.662 0 0 1 12 2.987a3.658 3.658 0 0 1-3.23-1.943 11.34 11.34 0 0 0-2.233.925 3.657 3.657 0 0 1-4.566 4.567 11.26 11.26 0 0 0-.927 2.235A3.662 3.662 0 0 1 2.987 12a3.658 3.658 0 0 1-1.943 3.23c.229.777.539 1.525.925 2.233a3.66 3.66 0 0 1 4.566 4.568c.71.387 1.458.696 2.236.925A3.662 3.662 0 0 1 12 21.013c1.375 0 2.602.766 3.23 1.943a11.34 11.34 0 0 0 2.233-.925 3.657 3.657 0 0 1 4.566-4.567c.387-.708.698-1.455.927-2.235A3.658 3.658 0 0 1 21.013 12c0-1.375.766-2.602 1.943-3.23zM12 15.672a3.672 3.672 0 0 1 0-7.342 3.672 3.672 0 0 1 0 7.342z" fill-rule="nonzero" stroke="#424242" fill="none"/></svg>