<svg xmlns="http://www.w3.org/2000/svg" width="24" height="24"><g fill="none" fill-rule="evenodd"><rect fill="#F98E25" width="24" height="24" rx="4"/><path d="M9.818 5.225c-.511.4-1.048.765-1.606 1.092l.007.112a.412.412 0 0 0 .159-.067.086.086 0 0 1 .107.06.09.09 0 0 1 .003.036l.11-.067.055-.007.01.055a6.287 6.287 0 0 1-1.123.941l.06.102-.056.007-.118-.045c0 .038-.048.06-.158.067l.007.06.118.148a.414.414 0 0 1-.165-.038 1.08 1.08 0 0 0-.718.572l.069.104a1.49 1.49 0 0 1 .354-.305l.018.164a.459.459 0 0 0-.158.067l.13.207c.239-.28.515-.525.82-.728.097 0 .185.058.227.148l.111-.015a8.57 8.57 0 0 1 2.4-1.395l.006.114a.844.844 0 0 1-.304.365.47.47 0 0 0 .076.214 20.809 20.809 0 0 1-1.075 2.93A85.392 85.392 0 0 1 5 19.436c.01.058.03.113.061.162.19-.033.37-.106.53-.214l.061-.008.01.11.103-.006.11-.067c0 .036.04.052.11.045l.008.111a1.044 1.044 0 0 1-.18.512c-.17.266-.293.56-.365.868l.007.051.103-.007a7.165 7.165 0 0 0 1.027-1.595 15.802 15.802 0 0 0 3.012-1.223 2.705 2.705 0 0 0 1.592-.586l-.006-.06-.262.082-.062.007-.007-.06c.38-.032.744-.16 1.064-.37 1.002-.83 1.748-1.416 2.258-1.77 1.58-1.246 2.324-2.447 2.234-3.59a6.659 6.659 0 0 0-1.041-1.4c.135-.317.392-.562.709-.676l1.372-1.297c.361-.616.552-1.322.552-2.04l-.02-.22a2.018 2.018 0 0 0-1.337-1.6 4.885 4.885 0 0 0-2.668-.583 15.422 15.422 0 0 0-4.157 1.213zm7.389.096l-.041.112-1.53-.693c1.02.044 1.545.237 1.572.578l-.001.003zm-6.19 4.571c.013-.375.137-.738.355-1.039l1.14-2.765c-.012-.171.229-.305.732-.393l.166-.015.013.152c.496-.078.795-.122.913-.137.91-.082 1.378.111 1.419.593l.104-.007-.022-.282.11-.007a.732.732 0 0 1 .428.579.9.9 0 0 1-.236.579c-.069.007-.11-.045-.119-.156l-.11.008-.027.333c-.207.48-.557.88-1 1.142a1.326 1.326 0 0 1-.354.422 6.373 6.373 0 0 1-1.182.95 14.8 14.8 0 0 0-2.378.993.37.37 0 0 0-.214-.035l-.007-.107c.007-.291.1-.573.269-.808zm6.335-3.411l.007.103a1.019 1.019 0 0 1-.304-.525l-.013-.106a.625.625 0 0 1 .31.527v.001zM7.288 7.801l.007.051a.466.466 0 0 0-.158.067l-.056.007-.006-.103.213-.022zm3.33-.088l.013.162a.432.432 0 0 0-.2.243L10.426 8a.566.566 0 0 0 .144-.288h.048zm-.487 1.152l.029.226-.08.007-.028-.222.08-.01zm-.154.4c-.013.189-.056.286-.145.293l-.055.008a.597.597 0 0 0 .09-.282l.11-.018zm-.227.58l.006.054-.096.18h-.104l-.007-.046a.143.143 0 0 0 .148-.14.15.15 0 0 0-.004-.039l.057-.01zm-.23.52l-.025.276-.062.007-.021-.274.107-.01zm5.585.2l.228.147a.103.103 0 0 1-.097.122.442.442 0 0 0-.227-.096l-.014-.163.11-.01zm-4.373.63l.003.106-.214.022-.007-.103.218-.026zm3.525.387c.105.03.191.106.237.208l.007.052a.445.445 0 0 1-.4-.243l.156-.017zm-4.549 1.202a11.479 11.479 0 0 0 2.93-.935l.324-.029a1.782 1.782 0 0 1 1.51.415l.02.222a2.228 2.228 0 0 1-.821 1.357l-1.378 1.18c-.527.405-1.082.77-1.662 1.092-.94.65-1.966 1.16-3.046 1.516h-.062c.056-.207.779-1.809 2.185-4.82v.002zm1.49-.63l.005.078-.22.032-.007-.078.221-.032zm4.949-.243l.033.443a.224.224 0 0 1-.151.179l-.062-.772a.256.256 0 0 1 .18.155v-.005zm-8.391 3.826a.8.8 0 0 1-.221.58l-.005-.05a.653.653 0 0 1 .227-.526l-.001-.004zm1.38 2.097a17.24 17.24 0 0 0 3.295-1.854l.007.104a1.55 1.55 0 0 1-.465.426 8.249 8.249 0 0 0-1.613.987 4.127 4.127 0 0 0-1.475.689c-.595.239-1.175.514-1.738.823a.6.6 0 0 1-.279-.072.504.504 0 0 1 .237-.474.82.82 0 0 1 .44.074c.274-.131.56-.23.855-.298l-.007-.111-.32.024c.296-.195.613-.354.945-.474l.166-.015.007.052a.446.446 0 0 0-.473.274.093.093 0 0 0 .11.096c.114-.067.218-.152.308-.25zm-1.695-1.342l.008.052a.103.103 0 0 1-.098.122l-.007-.053a.109.109 0 0 1 .097-.121zm2.577.756a2.36 2.36 0 0 0-.737.348l-.056.006-.007-.109c.258-.02.5-.139.676-.334.049-.014.1.014.114.065a.097.097 0 0 1 .004.024h.006zm-2.674.8l.165-.014.007.054a.414.414 0 0 0-.158.066l-.103.008a.108.108 0 0 1 .09-.122l-.001.009zm-1.096.661l.118.052c-.041.334-.131.505-.29.52a.664.664 0 0 0-.337-.074l-.015-.164a.113.113 0 0 1 .103-.122c.069-.007.11.045.118.156.09-.132.191-.254.304-.364l-.001-.004z" fill="#FFF" fill-rule="nonzero"/></g></svg>