<svg xmlns="http://www.w3.org/2000/svg" width="24" height="24"><g fill="none" fill-rule="evenodd"><rect fill="#FFCA28" width="24" height="24" rx="4"/><path d="M10.179 8.465h-.015c-.53.028-.81.325-.81.859v3.983c0 .293-.053.498-.155.593-.058.054-.136.077-.24.07H8.95c-.084 0-.241-.03-.513-.167-.349-.175-.489-.195-.564-.195h-.012l-.012.002c-.223.041-.505.195-.576.692l-.002.015.001.014c.054.705.654 1.077 1.783 1.102h.006c.62-.012 1.099-.192 1.422-.53.323-.339.492-.837.504-1.485V9.317c-.027-.53-.307-.824-.808-.852zm1.206 2.199c0 .908.673 1.56 2 1.94.909.257 1.05.503 1.052.628-.022.454-.276.665-.8.665-.224 0-.522-.058-.885-.173a2.317 2.317 0 0 0-.641-.189l-.017-.002-.017.002c-.449.058-.7.326-.728.778v.013c.014.368.235.649.654.833.39.172.948.262 1.704.274h.008c.77-.038 1.371-.24 1.788-.603.42-.367.66-.9.71-1.585v-.01c0-1.028-.72-1.754-2.142-2.158-.822-.257-.945-.483-.945-.596 0-.112 0-.411.617-.444.264.023.486.079.66.166l.015.008.016.003c.226.051.4.076.532.076.301 0 .674-.14.744-.809l.002-.013-.002-.013c-.028-.313-.216-.56-.557-.732-.319-.161-.764-.258-1.362-.295h-.02c-1.508.128-2.31.878-2.386 2.228v.008zm7.44-3.318l-6.429-3.712a.961.961 0 0 0-.961 0L5.006 7.346a.961.961 0 0 0-.48.832v7.5c0 .296.157.57.413.717l6.496 3.75a.961.961 0 0 0 .961 0l6.429-3.711a.961.961 0 0 0 .48-.833V8.178a.961.961 0 0 0-.48-.832zm-1.173 7.856l-5.737 3.312-5.736-3.312V8.578l5.736-3.312 5.737 3.312v6.624z" fill="#FFF" fill-rule="nonzero"/></g></svg>