<svg xmlns="http://www.w3.org/2000/svg" width="24" height="24"><g fill="none" fill-rule="evenodd"><rect fill="#4CAF50" width="24" height="24" rx="4"/><path d="M19.393 10.358V8.787L14.27 3.665H5.426v6.693h-1.27v7.565h1.27v2.23h13.967v-2.23h1.251v-7.565h-1.251zm-4.074-4.056l1.437 1.437h-1.437V6.302zM6.59 4.83h7.633v4.03h4.007v1.499H6.589V4.829zm9.26 9.234c0 1.881-1.223 2.725-2.425 2.725-1.388 0-2.357-1.086-2.357-2.629 0-1.6.999-2.715 2.425-2.715 1.386 0 2.357 1.076 2.357 2.619zm-3.685.077c0 .748.406 1.55 1.288 1.55.89 0 1.297-.802 1.297-1.595 0-.748-.406-1.55-1.287-1.55-.594 0-1.298.414-1.298 1.595zm-3.09.379c-.941-.33-1.397-.844-1.397-1.562 0-.883.747-1.523 1.765-1.523.61 0 .99.165 1.164.262l.175.097-.32.96-.253-.135a1.637 1.637 0 0 0-.775-.194c-.476 0-.641.252-.641.465 0 .262.117.427.786.68.67.261 1.358.649 1.358 1.609 0 1.106-.951 1.6-1.892 1.6-.484 0-1.037-.135-1.338-.339l-.145-.097.3-.98.272.165c.271.175.64.272.96.272.466 0 .747-.213.747-.563-.039-.28-.155-.475-.766-.717zm-4.2 2.143l-.184-.077.174-.98.272.107c.058.019.213.077.426.077.35 0 .621-.068.621-.921v-3.346H7.28v3.394c0 1.552-.902 1.872-1.668 1.872-.242 0-.543-.058-.737-.126zm13.355 2.328H6.59v-1.067h11.64v1.067zm1.863-2.28h-.99l-1.561-2.502c-.155-.242-.291-.475-.417-.679.01.282.01.582.01.931v2.25h-1.058v-5.188h1.038l1.581 2.492c.126.194.242.388.349.582-.01-.28-.01-.563-.01-.863v-2.211h1.058v5.188z" fill="#FFF" fill-opacity=".991" fill-rule="nonzero"/></g></svg>