<svg xmlns="http://www.w3.org/2000/svg" width="24" height="24"><g fill="none" fill-rule="evenodd"><rect fill="#0075AA" width="24" height="24" rx="4"/><g fill="#FFF" fill-rule="nonzero"><path d="M13.439 4.424l.577.13.47.169.376.192.292.208.215.215.161.215.1.215.062.192.022.169.016.13-.007.085v3.423l-.031.4-.084.355-.14.292-.168.246-.192.2-.215.163-.224.123-.223.093-.215.062-.193.046-.168.023-.14.015h-3.8l-.446.031-.377.093-.323.14-.261.174-.208.208-.168.224-.131.23-.093.24-.062.223-.046.207-.022.169-.016.14v1.96H6.338L6.2 15.81l-.177-.047-.208-.077-.223-.115-.23-.169-.23-.23-.224-.292-.208-.376-.176-.471-.13-.562-.093-.7-.03-.792.037-.786.1-.668.154-.554.208-.454.23-.37.255-.284.27-.208.27-.155.254-.1.229-.06.208-.03.154-.008h.1l.038.007h5.23v-.531H8.269l-.007-1.762-.016-.239.031-.214.069-.2.108-.177.162-.168.2-.146.245-.131.285-.115.323-.093.37-.077.416-.07.454-.037.491-.022.538-.016.815.031.686.083zm-4.03 1.268l-.147.215-.053.261.053.262.146.214.215.14.261.061.261-.061.215-.14.146-.214.054-.262-.062-.27-.146-.208-.215-.139-.261-.062-.262.062-.206.141z"/><path d="M17.792 8.222l.177.038.208.077.224.116.23.168.23.223.224.301.208.377.177.469.139.562.093.668.03.786-.037.785-.1.669-.155.553-.207.454-.23.37-.255.292-.27.215-.27.154-.254.1-.23.062-.209.03-.154.016-.1-.007h-5.268v.523h3.738l.007 1.769.016.23-.031.215-.069.2-.108.183-.162.162-.2.154-.245.13-.285.11-.323.092-.37.084-.407.062-.454.046-.492.023-.538.007-.814-.023-.684-.092-.578-.131-.469-.162-.378-.19-.292-.215-.215-.215-.162-.215-.1-.215-.061-.192-.023-.162-.015-.13.007-.085v-3.425l.03-.408.085-.345.14-.292.168-.246.192-.208.215-.155.223-.13.224-.093.208-.062.192-.038.169-.022.139-.016.084-.006h3.747l.447-.031.376-.093.323-.13.262-.178.215-.208.168-.223.13-.23.093-.23.062-.224.047-.208.022-.177.016-.14V8.2H17.6l.093.007.098.015zm-4.145 9.139l-.147.215-.053.26.053.262.147.215.214.146.262.053.26-.053.216-.146.146-.215.053-.261-.053-.261-.146-.215-.215-.146-.261-.054-.262.054-.214.146z"/></g></g></svg>