<?xml version="1.0" encoding="UTF-8"?>
<svg width="44px" height="44px" viewBox="0 0 44 44" version="1.1" xmlns="http://www.w3.org/2000/svg" xmlns:xlink="http://www.w3.org/1999/xlink">
    <!-- Generator: Sketch 60 (88103) - https://sketch.com -->
    <title>形状结合@2x</title>
    <desc>Created with Sketch.</desc>
    <g id="本地资源" stroke="none" stroke-width="1" fill="none" fill-rule="evenodd">
        <path d="M22,43.5 L21.961949,43.499926 C21.9312477,43.4991457 21.9004718,43.4974127 21.8696611,43.4947088 L22,43.5 C21.9329517,43.5 21.8669308,43.4956009 21.8022102,43.4870757 C21.7803605,43.4843186 21.7580261,43.48082 21.7357037,43.4767986 C21.7089535,43.472034 21.68252,43.4665852 21.6563504,43.4604511 C21.636803,43.4556524 21.616813,43.450494 21.596858,43.444902 C21.4799529,43.4126444 21.3690058,43.3663955 21.2656452,43.3082519 C21.2076198,43.2757127 21.1523487,43.2396923 21.1000672,43.2005384 L21.0923678,43.1943391 C21.0781759,43.1835374 21.0641823,43.1724885 21.0503935,43.1611989 C20.851949,42.9993724 20.7010703,42.7907415 20.6078092,42.5584202 C20.5785949,42.4857475 20.5569381,42.4171648 20.5402573,42.3466582 C20.5252642,42.2830534 20.5141531,42.2179196 20.5073914,42.1520384 C20.5064237,42.1402933 20.5053336,42.1279973 20.5043928,42.1156595 C20.4977475,42.0337685 20.4980676,41.951339 20.5053792,41.8686622 L20.5,42 C20.5,41.9356055 20.5040577,41.8721586 20.5119314,41.8099013 C20.5153305,41.7819677 20.5198611,41.7532364 20.5252584,41.7245291 C20.5297106,41.7005018 20.5346014,41.6773211 20.5400205,41.6543444 C20.5435145,41.6404083 20.5472462,41.6256894 20.5512123,41.610988 C20.5677331,41.5493123 20.5858638,41.495356 20.6068753,41.442864 L27.335,23.5 L14,23.5 C13.0116526,23.5 12.3063995,22.5665269 12.5456683,21.6318502 L12.5842125,21.5044744 L18.788108,3.77737699 C10.0714383,5.30084744 3.5,12.9131138 3.5,22 C3.5,29.3660222 7.84402692,35.9385541 14.4517538,38.8954953 C15.2079208,39.2338781 15.5466018,40.1211861 15.208219,40.8773531 C14.8698361,41.6335201 13.9825282,41.9722011 13.2263611,41.6338183 C5.54853302,38.1980095 0.5,30.5595567 0.5,22 C0.5,10.6267068 9.35662581,1.24209578 20.6499454,0.541749195 C20.921324,0.475979933 21.2132347,0.48541063 21.4955256,0.584212465 C22.2314483,0.841785409 22.6397065,1.61494838 22.4570289,2.35690747 L22.4157875,2.49552564 L16.113,20.5 L29.5,20.5 C30.5036714,20.5 31.211259,21.4607034 30.9448254,22.4038465 L30.9044938,22.5266852 L24.2139052,40.3688969 C33.387433,39.2748977 40.5,31.4680634 40.5,22 C40.5,13.9291448 35.2844852,6.86250129 27.7303511,4.40417696 C26.9425878,4.14781697 26.5118003,3.30138778 26.7681603,2.51362446 C27.0245203,1.72586113 27.8709495,1.29507362 28.6587128,1.55143361 C37.4394585,4.40893131 43.5,12.6205246 43.5,22 C43.5,33.8640877 33.8903843,43.4837293 22.0300986,43.4999794 L22.0310159,43.5000788 L22,43.5 L22,43.5 Z" id="形状结合" fill="#00A0E9" fill-rule="nonzero"></path>
    </g>
</svg>