<svg t="1606134920695" class="icon" viewBox="0 0 1024 1024" version="1.1" xmlns="http://www.w3.org/2000/svg" p-id="3670" width="32" height="32"><path d="M729.344 0h85.333333v368.384a76.8 76.8 0 0 1-76.8 76.8H290.133333a76.8 76.8 0 0 1-76.8-76.8V0h85.333334v359.850667h430.677333V0z" fill="#c5c5c5" p-id="3671"></path><path d="M136.533333 85.333333a51.2 51.2 0 0 0-51.2 51.2v750.933334a51.2 51.2 0 0 0 51.2 51.2h750.933334a51.2 51.2 0 0 0 51.2-51.2V136.533333a51.2 51.2 0 0 0-51.2-51.2H136.533333z m0-85.333333h750.933334A136.533333 136.533333 0 0 1 1024 136.533333v750.933334a136.533333 136.533333 0 0 1-136.533333 136.533333H136.533333A136.533333 136.533333 0 0 1 0 887.466667V136.533333A136.533333 136.533333 0 0 1 136.533333 0z" fill="#c5c5c5" p-id="3672"></path><path d="M597.333333 170.666667h85.333334v128.853333H597.333333z" fill="#c5c5c5" p-id="3673"></path></svg>