<svg t="1606228350488" class="icon" viewBox="0 0 1024 1024" version="1.1" xmlns="http://www.w3.org/2000/svg" p-id="4568" width="48" height="48"><path d="M227.555556 142.222222a85.333333 85.333333 0 0 0-85.333334 85.333334v568.888888a85.333333 85.333333 0 0 0 85.333334 85.333334h568.888888a85.333333 85.333333 0 0 0 85.333334-85.333334V227.555556a85.333333 85.333333 0 0 0-85.333334-85.333334H227.555556z m0-56.888889h568.888888a142.222222 142.222222 0 0 1 142.222223 142.222223v568.888888a142.222222 142.222222 0 0 1-142.222223 142.222223H227.555556a142.222222 142.222222 0 0 1-142.222223-142.222223V227.555556a142.222222 142.222222 0 0 1 142.222223-142.222223z" fill="#ffffff" p-id="4569"></path><path d="M284.444444 142.222222v256h455.111112V142.222222h56.888888v264.760889c0 26.567111-25.457778 48.128-56.888888 48.128H284.444444c-31.431111 0-56.888889-21.560889-56.888888-48.128V142.222222h56.888888z" fill="#ffffff" p-id="4570"></path><path d="M625.777778 199.111111m28.444444 0l0 0q28.444444 0 28.444445 28.444445l0 85.333333q0 28.444444-28.444445 28.444444l0 0q-28.444444 0-28.444444-28.444444l0-85.333333q0-28.444444 28.444444-28.444445Z" fill="#ffffff" p-id="4571"></path></svg>