<svg t="1609741210782" class="icon" viewBox="0 0 1024 1024" version="1.1" xmlns="http://www.w3.org/2000/svg" p-id="1098" width="32" height="32"><path d="M481.749333 353.792c16.682667-16.64 43.690667-16.64 60.373334 0l120.917333 120.832 3.541333 4.010667a42.666667 42.666667 0 0 1-63.872 56.32L554.666667 486.954667V896a42.666667 42.666667 0 0 1-85.333334 0v-409.173333l-48.170666 48.128a42.666667 42.666667 0 0 1-60.330667 0l-3.541333-4.010667a42.666667 42.666667 0 0 1 3.541333-56.32zM512 85.333333c122.538667 0 227.84 73.813333 273.92 179.370667A213.333333 213.333333 0 0 1 725.333333 682.666667a42.666667 42.666667 0 0 1-4.992-85.034667L725.333333 597.333333a128 128 0 0 0 36.394667-250.794666l-38.144-11.264-15.914667-36.437334a213.376 213.376 0 0 0-407.296 58.026667l-7.381333 58.368-57.173333 13.824A85.418667 85.418667 0 0 0 256 597.333333h42.666667a42.666667 42.666667 0 0 1 0 85.333334H256a170.666667 170.666667 0 0 1-40.277333-336.554667A298.709333 298.709333 0 0 1 512 85.333333z" fill="#ffffff" p-id="1099"></path></svg>